<?xml version="1.0" encoding="UTF-8" standalone="no"?>
<!DOCTYPE svg PUBLIC "-//W3C//DTD SVG 1.1//EN" "http://www.w3.org/Graphics/SVG/1.1/DTD/svg11.dtd">
<svg width="100%" height="100%" viewBox="0 0 514 514" version="1.1" xmlns="http://www.w3.org/2000/svg" xmlns:xlink="http://www.w3.org/1999/xlink" xml:space="preserve" style="fill-rule:evenodd;clip-rule:evenodd;stroke-linejoin:round;stroke-miterlimit:1.41421;">
    <g transform="matrix(10.3921,0,0,10.4957,-2869.67,-4629.96)">
        <path d="M320.86,455.2C329.07,472.28 312.849,493.24 292.88,486.15C285.54,483.551 276.45,474.621 279.19,459.961C280.67,452.02 286.759,445.511 297.64,443.89C307.799,442.371 317.62,448.471 320.86,455.2" style="fill:white;fill-rule:nonzero;"/>
    </g>
    <g id="Color" transform="matrix(1,0,0,1.00114,-44.1815,-189.386)">
        <path d="M273.83,470.53C276.59,467.36 283.94,461.871 283.95,458.03C283.95,454.251 278.64,451.7 279.78,447.91C258.08,448.871 235.4,451.22 216.09,452.671C217.82,475.621 228.04,492.49 242.28,505.65C251.17,496.001 263.77,482.091 273.83,470.53M279.19,444.341C279.92,439.121 281.95,435.19 283.95,431.24C269.66,415.37 254.5,400.37 238.71,386C224.64,400.821 213.63,421.15 216.09,449.1C236.45,447.76 257.35,445.7 279.19,444.341M302.4,424.1C306.25,402.551 310.88,381.78 314.9,360.4C284.16,355.24 257.48,366.97 241.68,382.43C255.52,398.96 272.59,412.24 286.33,428.86C290.71,426.301 294.73,423.371 302.4,424.1M314.9,527.081C311.57,506.01 306.5,486.671 303,465.77C295.13,466.501 291.48,463.001 286.33,461.01C273.17,477.211 259.23,492.64 244.66,507.44C258.77,521.41 285.82,533.82 314.9,527.081M354.19,377.67C343.34,371.051 333.14,363.79 318.47,361C313.9,382.02 309.47,403.19 305.97,425.291C308.69,424.56 308.309,426.921 310.74,426.48C324.93,409.92 340.5,394.73 354.19,377.67M318.47,526.49C345.47,520.94 362.7,505.631 374.43,484.82C354.41,476.26 337.94,464.171 317.28,456.24C314.75,460.06 311.58,463.24 306.57,464.581C309.57,486.19 314.58,505.78 318.47,526.49M375.62,406.841C373.8,399.33 369.22,394.591 364.91,389.571C349.45,404.67 332.35,418.131 317.28,433.621C335.92,426.081 356.39,415.71 375.62,406.841M375.62,482.44C386.84,466.06 389.22,426.86 376.809,409.81C367.44,414.12 357.43,419.611 347.64,424.1C338.28,428.4 328.15,431.6 320.26,437.791C320.69,439.56 321.87,449.32 319.67,452.081C337.76,462.76 357.26,472.03 375.62,482.44M459.559,299.69C457.91,292.97 452.059,283.24 444.67,284.21C441.309,284.65 432.14,297.25 428.01,302.071C422.47,308.51 416.32,314.341 411.34,319.93C378.26,357.04 341.28,398.96 311.33,431.24C297.97,422.23 282.61,432.03 282.76,444.93C282.86,453.35 291.27,462.4 300.62,462.2C314.7,461.89 322.78,443.77 312.519,432.43C360.83,387.48 410.88,344.26 459.559,299.69M500.63,444.341C473.559,409.301 441.94,378.81 403,355.64C397.42,360.571 391.97,365.64 386.34,370.52C418.51,391.73 448.25,415.361 472.059,444.93C454.53,467.66 431.43,487.15 406.58,505.06C382.48,522.421 353.21,539.341 318.47,543.16C311.13,543.961 302.55,545.01 294.66,544.35C254.57,540.961 221.96,524.921 194.66,505.65C169.37,487.81 146.9,466.35 129.18,444.93C147.29,423.7 168.95,401.67 194.66,384.22C219.43,367.39 248.94,350.06 283.95,346.71C314.8,343.76 345.47,350.79 368.48,362.19C373.62,356.22 379.53,351.02 383.96,344.33C356.62,332.12 325.23,320.81 286.33,324.091C241.25,327.9 205.2,348.861 174.42,371.71C145.01,393.56 118.64,419.01 100.6,445.53C121.13,472.44 146.64,497.961 176.2,519.94C203.08,539.921 240.72,561.15 281.57,565.18C309.38,567.93 335.7,563.421 358.95,556.251C417.89,532.301 465.3,493.66 500.63,444.341M557.78,433.621C561.75,516.98 527.62,579.001 488.72,621.14C447.58,665.72 391.09,697.921 313.12,702.1C231.74,706.45 169.82,673.57 126.2,633.64C81.01,592.27 49.27,537.4 44.65,458.631C39.8,376.16 73.3,313.321 112.51,271.111C142.67,238.65 181.74,212.65 232.75,198.49C250.52,193.56 269.74,190.571 288.71,189.56C371.72,185.12 433.12,219.361 476.22,258.611C518.74,297.33 554.12,356.81 557.78,433.621" style="fill-rule:nonzero;"/>
    </g>
</svg>
