<?xml version="1.0" encoding="UTF-8" standalone="no"?>
<!DOCTYPE svg PUBLIC "-//W3C//DTD SVG 1.1//EN" "http://www.w3.org/Graphics/SVG/1.1/DTD/svg11.dtd">
<svg width="100%" height="100%" viewBox="0 0 514 514" version="1.1" xmlns="http://www.w3.org/2000/svg" xmlns:xlink="http://www.w3.org/1999/xlink" xml:space="preserve" style="fill-rule:evenodd;clip-rule:evenodd;stroke-linejoin:round;stroke-miterlimit:1.41421;">
    <g transform="matrix(10.3921,0,0,10.4957,-2869.67,-4629.96)">
        <path d="M320.86,455.2C329.07,472.28 312.849,493.24 292.88,486.15C285.54,483.551 276.45,474.621 279.19,459.961C280.67,452.02 286.759,445.511 297.64,443.89C307.799,442.371 317.62,448.471 320.86,455.2" style="fill:white;fill-rule:nonzero;"/>
    </g>
    <g id="Concept" transform="matrix(1,0,0,0.997436,-44.1813,-154.773)">
        <path d="M380.38,360.93C383.27,355.42 383.12,340.28 380.38,334.74C313.51,332.95 242.48,335.33 175.61,333.55C174.62,321.43 174.61,305.18 175.61,293.07C196.65,291.29 221.83,293.65 242.87,291.88C243.67,284.71 244.15,272.31 242.87,266.88C214.27,264.9 177.43,264.9 148.82,266.88C146.45,364.8 147.63,469.25 148.22,567.49C200.77,569.47 261.19,569.47 313.12,567.49C314.09,560.82 314.09,550.36 313.12,543.68C293.17,539.48 259.88,543.29 244.06,541.9C242.26,498.01 244.68,446.9 242.87,404.98C236.85,402.77 224.84,403.7 217.87,404.39C214.29,445.79 219.03,501.71 216.09,542.49C203.76,540.61 185.45,543.31 175.01,541.3C175.8,484.34 173.43,419.08 176.2,362.12C208.67,361.54 251.71,360.33 285.14,362.72C287.35,381.36 283.75,410.38 286.93,429.98C294.18,430.96 305.27,430.96 312.52,429.98C315.7,409.89 312.08,380.7 314.31,361.53C333.53,361.04 362.12,362.44 380.38,360.93M450.63,568.09C453,469.79 451.82,365.2 451.22,266.88C450.86,266.84 450.52,266.79 450.63,266.28C397.84,264.89 342.49,266.08 288.71,265.69C288.01,265.97 287.36,266.32 286.93,266.88C284.72,272.71 285.64,284.5 286.33,291.28C329.8,294.44 379.981,290.9 424.43,293.07C424.06,327.05 425.22,370.8 423.84,403.79C403.61,404.27 377.151,402.95 355.981,404.39C354.05,411.2 354.62,421.09 355.38,429.39C375.89,432.89 404.52,428.27 425.03,431.77C423.64,466.93 424.85,507.73 424.43,541.9C412.12,541.59 393.02,542.75 381.57,541.3C382.2,520.17 383.29,493.59 380.981,473.44C353.76,472.42 314.74,472.44 287.52,473.44C284.83,478.98 284.67,493.53 287.52,499.04C307.04,501.81 334.67,499.409 354.191,500.23C356.36,519.38 352.941,549.68 355.981,568.09C386.14,569.08 420.46,569.08 450.63,568.09M557.78,399.62C561.75,482.98 527.62,545 488.731,587.14C447.58,631.72 391.09,663.92 313.12,668.1C231.74,672.45 169.82,639.57 126.2,599.64C81.01,558.27 49.27,503.4 44.65,424.63C39.8,342.16 73.3,279.32 112.51,237.11C142.67,204.65 181.74,178.65 232.75,164.49C250.52,159.56 269.74,156.57 288.71,155.56C371.72,151.12 433.12,185.36 476.22,224.61C518.74,263.33 554.12,322.81 557.78,399.62" style="fill-rule:nonzero;"/>
    </g>
</svg>
