<?xml version="1.0" encoding="UTF-8" standalone="no"?>
<!DOCTYPE svg PUBLIC "-//W3C//DTD SVG 1.1//EN" "http://www.w3.org/Graphics/SVG/1.1/DTD/svg11.dtd">
<svg width="100%" height="100%" viewBox="0 0 514 514" version="1.1" xmlns="http://www.w3.org/2000/svg" xmlns:xlink="http://www.w3.org/1999/xlink" xml:space="preserve" style="fill-rule:evenodd;clip-rule:evenodd;stroke-linejoin:round;stroke-miterlimit:1.41421;">
    <g transform="matrix(10.3921,0,0,10.4957,-2869.67,-4629.96)">
        <path d="M320.86,455.2C329.07,472.28 312.849,493.24 292.88,486.15C285.54,483.551 276.45,474.621 279.19,459.961C280.67,452.02 286.759,445.511 297.64,443.89C307.799,442.371 317.62,448.471 320.86,455.2" style="fill:white;fill-rule:nonzero;"/>
    </g>
    <g transform="matrix(1,0,0,1,-44.1779,-157.171)">
        <path d="M136.32,340.31C136.88,339.01 135.95,334.97 136.32,331.98C127.13,332.06 120.15,329.03 110.13,328.4C102.6,327.94 86.62,327.97 86.32,333.76C86.18,336.38 91.77,338.89 94.05,339.71C105.93,344.01 125.17,342.02 136.32,340.31M207.75,337.33C208.21,333.93 201.94,331.62 199.42,330.79C187,326.67 169.65,328.78 157.75,330.19C156.7,332.76 157.2,337.37 157.75,338.52C169.26,339.58 183.12,343.34 196.44,342.1C199.28,341.83 207.33,340.48 207.75,337.33M371.46,444.48C371.43,437.43 371.89,428.76 369.07,423.65C362.72,412.14 343.26,416.9 325.02,415.91C321.941,413.74 321.76,409.42 316.691,408.17C311.09,406.79 290.59,407.14 285.73,408.17C279.87,409.42 280.19,414.6 276.21,415.91C271.04,417.61 263,415.91 257.76,415.91C251.63,415.91 245.43,415.16 240.49,417.1C226.68,422.54 230.37,447.371 230.37,466.51C230.37,478.621 228.1,498.67 232.75,506.99C238.45,517.16 256.82,514.73 273.83,514.73L306.57,514.73C323.64,514.73 358.68,519.22 367.29,509.371C374.25,501.42 370.75,481.18 370.861,467.1C370.92,458.77 371.49,452.06 371.46,444.48M444.08,338.52C444.47,336.36 444.85,332.37 444.08,330.19C427.191,328.14 401.401,325.38 393.481,337.33C405.02,346.98 429.111,339.88 444.08,338.52M457.17,395.67C467.67,394.08 476.34,373.74 473.84,361.14C472.41,353.9 466,352.25 459.56,349.83C458.12,340.5 464.09,314.91 453.01,318.28C445.27,320.64 453.12,342.09 449.441,350.43L354.79,350.43C354.21,334.94 329.231,343.84 315.5,341.5C311.8,329.39 289.81,330.63 285.73,341.5C274.41,341.89 261.54,340.72 251.21,342.1C247.73,342.99 249.08,348.69 246.45,350.43L151.8,350.43C150.62,340.09 154.39,324.82 149.42,318.28C136.02,317.98 144.8,339.86 142.27,350.43C117.6,352.62 129.01,393.95 145.25,395.67C162.69,397.53 165.95,375.2 166.08,359.95L233.35,359.95C234.65,363.61 236.51,366.72 238.11,370.07C220.44,381.38 205.82,396.88 202.99,426.63C202.01,436.92 202.4,450.081 202.4,464.13C202.4,473.02 199.94,497.93 205.97,498.65C215.22,499.77 208.75,477.4 210.73,474.84L218.47,474.84L218.47,455.79C215.75,455.54 211.91,456.4 210.13,455.2C208.22,416.78 218.01,390.05 241.68,377.22C243.34,388.73 259.6,384.96 273.83,384.96L328.59,384.96C343.79,384.96 359.6,387.94 360.74,377.22C383.62,390.26 394.58,418.37 391.1,455.79L383.361,455.79L383.361,474.84C386.08,475.1 389.92,474.24 391.691,475.44C392.32,478.871 387.16,498.65 395.27,498.65C402.02,498.65 399.43,474.77 399.43,467.1C399.43,453.61 400.05,441.56 399.43,430.79C397.67,399.88 381.1,380.67 363.72,369.48C366.2,367 366.45,362.29 369.07,359.95C391.3,360.35 415.1,359.16 436.34,360.55C435.03,377.4 440.611,398.18 457.17,395.67M515.51,333.17C503.731,323.53 480.96,331.03 465.51,331.98C465.861,335.44 464.93,338.96 465.51,340.91C482.63,341.72 508.481,345.83 515.51,333.17M557.78,401.62C561.74,484.81 527.7,547.19 488.731,589.14C447.37,633.65 391.24,665.91 313.12,670.1C231.92,674.44 169.6,641.69 126.2,601.64C81.1,560.02 49.28,505.581 44.65,426.63C39.76,343.49 73.6,281.9 112.51,239.11C142.16,206.51 182.11,180.54 232.75,166.49C250.52,161.56 269.74,158.57 288.71,157.56C371.71,153.12 433.12,187.36 476.22,226.61C518.74,265.32 554.12,324.82 557.78,401.62" style="fill-rule:nonzero;"/>
    </g>
    <g transform="matrix(1,0,0,1,-44,-156.48)">
        <path d="M349.43,429.6C359.981,426.96 359.91,443.72 350.02,442.7C342.88,441.96 341.87,431.49 349.43,429.6" style="fill-rule:nonzero;"/>
    </g>
    <g transform="matrix(1,0,0,1,-44,-156.48)">
        <path d="M292.88,486.15C312.85,493.24 329.07,472.28 320.86,455.2C317.62,448.47 307.8,442.371 297.64,443.89C286.76,445.51 280.67,452.02 279.19,459.961C276.45,474.621 285.54,483.55 292.88,486.15M335.74,459.961C339.86,492.581 306.401,509.081 283.95,496.27C254.42,479.43 263.34,433.97 297.64,430.791C316.95,429.001 333.51,442.34 335.74,459.961" style="fill-rule:nonzero;"/>
    </g>
</svg>
