<?xml version="1.0" encoding="UTF-8" standalone="no"?>
<!DOCTYPE svg PUBLIC "-//W3C//DTD SVG 1.1//EN" "http://www.w3.org/Graphics/SVG/1.1/DTD/svg11.dtd">
<svg width="100%" height="100%" viewBox="0 0 514 514" version="1.1" xmlns="http://www.w3.org/2000/svg" xmlns:xlink="http://www.w3.org/1999/xlink" xml:space="preserve" style="fill-rule:evenodd;clip-rule:evenodd;stroke-linejoin:round;stroke-miterlimit:1.41421;">
    <g transform="matrix(10.3921,0,0,10.4957,-2869.67,-4629.96)">
        <path d="M320.86,455.2C329.07,472.28 312.849,493.24 292.88,486.15C285.54,483.551 276.45,474.621 279.19,459.961C280.67,452.02 286.759,445.511 297.64,443.89C307.799,442.371 317.62,448.471 320.86,455.2" style="fill:white;fill-rule:nonzero;"/>
    </g>
    <g id="Edit" transform="matrix(0.991648,0,0,0.992788,-41.6985,-160.661)">
        <path d="M405.69,468.371C405.69,456.94 408.29,440.631 405.69,431.15C405.04,428.78 401.719,426.501 399.69,423.95C390.69,412.65 384.99,395.289 388.879,376.52C383.889,377.361 381.54,382.071 378.08,385.53C370.9,392.71 364.2,399.471 355.87,406.539C352.419,409.46 345.44,413.419 344.46,416.741C342.23,424.31 346.62,430.721 343.86,438.349L213,438.349C213.399,409.14 212.2,378.33 213.6,350.111L301.839,350.111C312.11,350.111 324.07,352.25 331.86,350.111C337.53,348.559 340.58,339.91 345.66,337.511C341.5,333.95 337.54,324.661 330.059,323.1C318.23,320.64 301.549,323.1 286.23,323.1C243.46,323.1 190.39,322.131 151.169,324.301C147.879,333.669 149.37,344.349 149.37,354.309C149.37,428.99 148.379,507.02 150.569,578.82C232.779,580.82 322.9,580.81 404.49,578.82C406.679,543.631 405.69,505.4 405.69,468.371M437.509,430.551C462.759,432.9 486.58,413.289 483.129,383.729C480.669,362.681 459.929,343.15 432.099,349.511C427.879,350.479 426.269,352.539 420.7,354.309C417.799,351.631 415.219,349.439 411.69,345.91C409.969,344.19 403.21,338.871 403.29,336.91C403.379,334.71 410.78,330.011 412.29,328.5C415.929,324.871 417.48,321.95 421.299,320.1C448.21,335.73 480.25,316.761 483.129,290.08C485.799,265.261 467.269,240.241 436.299,243.861C411.309,246.78 394.46,273.111 404.49,300.89C399.139,306.741 393.54,312.341 387.679,317.701C375.94,307.221 364.009,293.25 350.46,281.08C334.69,266.91 312.73,250.57 286.83,258.27C308.16,281.571 332.74,304.78 355.269,327.301C357.49,329.52 364.929,336.23 364.87,337.511C364.83,338.381 357.04,345.341 355.269,347.111C331.929,370.45 308.129,392.871 286.83,416.14C312.74,423.721 334.5,407.56 349.86,393.931C363.86,381.52 375.73,367.229 387.679,356.721C393.44,362.371 399.74,367.471 404.49,374.121C393.98,402.289 412.78,428.251 437.509,430.551M559.96,408.341C563.96,492.39 529.549,554.93 490.33,597.43C448.839,642.391 391.87,674.86 313.25,679.069C231.19,683.461 168.75,650.31 124.759,610.03C79.19,568.32 47.19,512.98 42.52,433.551C37.64,350.39 71.41,287.02 110.95,244.46C141.37,211.72 180.77,185.51 232.21,171.229C250.12,166.26 269.5,163.25 288.64,162.22C372.339,157.741 434.259,192.281 477.719,231.861C520.599,270.9 556.269,330.881 559.96,408.341" style="fill-rule:nonzero;"/>
        <path d="M385.28,526.59L385.28,547.6C382.05,547.88 369.139,547.489 364.269,547.6L364.269,526.59L385.28,526.59Z" style="fill-rule:nonzero;"/>
        <rect x="364.269" y="469.569" width="21.011" height="21.011" style="fill-rule:nonzero;"/>
        <rect x="364.269" y="412.54" width="21.011" height="21.01" style="fill-rule:nonzero;"/>
        <path d="M344.46,465.371L344.46,553.011L213,553.011L213,466.57C212.95,465.71 212.9,464.871 213.6,464.77C257.02,465.171 302.04,463.971 344.46,465.371" style="fill-rule:nonzero;"/>
        <path d="M192.59,526.59L192.59,547.6C187.8,547.79 176.29,547.54 171.58,547.6C170.22,541.76 171.35,533.43 170.98,526.59L192.59,526.59Z" style="fill-rule:nonzero;"/>
        <rect x="170.98" y="469.569" width="21.61" height="21.011" style="fill-rule:nonzero;"/>
        <path d="M192.59,412.54L192.59,433.55L170.98,433.55L170.98,413.14C177.02,411.78 185.56,412.92 192.59,412.54" style="fill-rule:nonzero;"/>
        <rect x="170.98" y="355.51" width="21.61" height="21.01" style="fill-rule:nonzero;"/>
        <g transform="matrix(1.00842,0,0,1.00726,-3.32933,-2.35598)">
            <path d="M461.52,381.33C474.281,413.5 416.161,423.19 421.9,384.33C425.72,364.86 455.47,366.09 461.52,381.33" style="fill-rule:nonzero;"/>
        </g>
        <g transform="matrix(1.00842,0,0,1.00726,-3.32933,-2.35598)">
            <path d="M450.71,265.47C470.86,273.51 464.231,313.37 435.1,304.49C430.5,303.09 423.33,297.04 421.9,290.08C418.79,275.03 427.5,266.76 438.11,264.87C443.9,263.84 447.19,264.07 450.71,265.47" style="fill-rule:nonzero;"/>
        </g>
        <g transform="matrix(1.00842,0,0,1.00726,-3.32933,-2.35598)">
            <path d="M384.08,331.5C394.07,328.25 393.94,343.83 385.28,342.91C379.38,342.28 377.97,333.5 384.08,331.5" style="fill-rule:nonzero;"/>
        </g>
    </g>
</svg>
