<?xml version="1.0" encoding="UTF-8" standalone="no"?>
<!DOCTYPE svg PUBLIC "-//W3C//DTD SVG 1.1//EN" "http://www.w3.org/Graphics/SVG/1.1/DTD/svg11.dtd">
<svg width="100%" height="100%" viewBox="0 0 514 514" version="1.1" xmlns="http://www.w3.org/2000/svg" xmlns:xlink="http://www.w3.org/1999/xlink" xml:space="preserve" style="fill-rule:evenodd;clip-rule:evenodd;stroke-linejoin:round;stroke-miterlimit:1.41421;">
    <g transform="matrix(10.3921,0,0,10.4957,-2869.67,-4629.96)">
        <path d="M320.86,455.2C329.07,472.28 312.849,493.24 292.88,486.15C285.54,483.551 276.45,474.621 279.19,459.961C280.67,452.02 286.759,445.511 297.64,443.89C307.799,442.371 317.62,448.471 320.86,455.2" style="fill:white;fill-rule:nonzero;"/>
    </g>
    <g id="Export" transform="matrix(1,0,0,1.00113,-44.1814,-163.757)">
        <path d="M442.29,516.97C443.63,504.06 442.29,495.71 442.29,481.25C442.29,471.98 445.46,451.81 438.72,448.51C432.12,445.27 425.71,450.25 422.05,451.48C415.5,453.699 411.92,455.89 409.55,460.409C400.79,477.15 414.64,512.93 402.41,522.32C397.96,525.74 384.68,524.699 375.62,524.699L197.04,524.699C187.84,524.699 174.09,526 169.06,522.92C159.84,517.27 163.11,491.25 163.11,476.49L163.11,378.86C163.11,366.55 160.08,338.66 164.89,331.83C170.65,323.68 195.11,327.07 211.92,327.07C229.79,327.07 253.09,330.1 262.52,325.29C266.13,323.44 269.36,319.22 270.85,313.38C271.93,309.16 274.54,300.29 271.45,295.52C266.82,288.4 236.47,291.95 224.42,291.95C206.22,291.95 186.05,291.23 172.63,292.54C148.02,294.96 132.43,310.64 128.58,329.45C125.87,342.73 127.99,359.82 127.99,376.48L127.99,472.909C127.99,488 125.85,506.35 128.58,520.54C132.44,540.59 149.05,557.449 170.25,559.83C188.9,561.92 208.58,559.83 228.59,559.83L345.26,559.83C365.23,559.83 387.43,562.18 403,559.23C420.99,555.82 439.88,540.3 442.29,516.97M475.63,370.53C481.98,365.67 500.85,354.92 500.63,344.93C500.44,336.23 483.99,326.26 475.63,319.93C450.49,300.9 428.54,285.21 404.2,266.35C399.03,262.35 391.7,254.68 385.74,258.61C382.08,267.65 384.79,283.06 383.96,294.93C378.16,303.82 366.24,304.25 356.57,306.83C295.86,323.06 248.96,359.87 218.47,406.24C214.29,412.6 204.52,428.18 211.92,433.63C218.38,438.38 227.6,430.909 232.16,427.08C258.14,405.26 293.6,387.78 336.33,385.41C353.57,384.45 375.68,382.41 383.96,394.34C386.41,404.73 379.15,429.56 387.53,433.03C393.04,435.31 400.06,426.88 403,424.699C429.33,405.15 450.76,389.56 475.63,370.53M557.78,408.03C561.75,491.39 527.62,553.4 488.73,595.54C447.58,640.13 391.09,672.33 313.12,676.5C231.74,680.86 169.82,647.98 126.2,608.04C81.01,566.67 49.27,511.8 44.65,433.03C39.8,350.56 73.3,287.72 112.51,245.52C142.67,213.05 181.74,187.05 232.75,172.89C250.52,167.96 269.74,164.98 288.71,163.96C371.72,159.52 433.12,193.77 476.22,233.02C518.74,271.73 554.12,331.22 557.78,408.03" style="fill-rule:nonzero;"/>
    </g>
</svg>
