<?xml version="1.0" encoding="UTF-8" standalone="no"?>
<!DOCTYPE svg PUBLIC "-//W3C//DTD SVG 1.1//EN" "http://www.w3.org/Graphics/SVG/1.1/DTD/svg11.dtd">
<svg width="100%" height="100%" viewBox="0 0 514 514" version="1.1" xmlns="http://www.w3.org/2000/svg" xmlns:xlink="http://www.w3.org/1999/xlink" xml:space="preserve" style="fill-rule:evenodd;clip-rule:evenodd;stroke-linejoin:round;stroke-miterlimit:1.41421;">
    <g transform="matrix(10.3921,0,0,10.4957,-2869.67,-4629.96)">
        <path d="M320.86,455.2C329.07,472.28 312.849,493.24 292.88,486.15C285.54,483.551 276.45,474.621 279.19,459.961C280.67,452.02 286.759,445.511 297.64,443.89C307.799,442.371 317.62,448.471 320.86,455.2" style="fill:white;fill-rule:nonzero;"/>
    </g>
    <g id="Grafix" transform="matrix(1,0,0,1,-44.1816,-193.171)">
        <path d="M389.91,595.371C400.83,595.371 411.59,596.18 411.34,587.04C411.03,576.189 391.36,579.3 380.38,579.3C366.15,579.3 354.24,579.8 341.69,578.711C342.68,569.939 342.68,557.11 341.69,548.35L260.14,548.35C259.44,548.449 259.49,549.29 259.54,550.131L259.54,579.3L221.44,579.3C210,579.3 190.6,575.93 190.49,587.04C190.36,600.011 225.46,595.371 241.09,595.371L389.91,595.371ZM470.87,515.01C473.65,503.841 472.059,485.721 472.059,470.359L472.059,378.1C472.059,362.77 474.36,345.73 471.46,332.261C468.76,319.7 456.59,308.071 447.059,305.471C437.86,302.96 423.58,304.881 411.93,304.881L231.56,304.881C208.62,304.881 179.25,302.161 158.34,305.471C146.18,307.4 137.82,315.091 132.75,327.5C128.08,338.9 129.18,357.809 129.18,373.931L129.18,473.939C129.18,493.08 128.23,510.501 132.75,520.961C136.75,530.24 144.43,536.93 152.99,540.011C160.67,542.78 177.31,541.8 190.49,541.8L411.93,541.8C425.4,541.8 439.48,543.381 448.25,540.61C459.13,537.16 467.9,526.9 470.87,515.01M557.78,437.621C561.75,520.98 527.62,583.001 488.73,625.141C447.58,669.721 391.09,701.92 313.12,706.1C231.74,710.449 169.82,677.569 126.2,637.641C81.01,596.27 49.27,541.4 44.65,462.631C39.8,380.161 73.3,317.321 112.51,275.111C142.67,242.65 181.74,216.65 232.75,202.491C250.52,197.56 269.74,194.57 288.71,193.56C371.72,189.121 433.12,223.361 476.22,262.611C518.74,301.33 554.12,360.809 557.78,437.621" style="fill-rule:nonzero;"/>
        <path d="M309.55,519.77C312.24,536.98 288.99,534.01 292.88,519.77C294.68,513.17 306.901,512.56 309.55,519.77" style="fill-rule:nonzero;"/>
        <g transform="matrix(1,0,0,1,0.181572,0.170806)">
            <path d="M445.27,326.9C455.481,332.44 453.599,349.27 453.599,363.81C453.599,409.48 454.099,452.2 453.01,497.751L148.82,497.751L148.82,375.12C148.82,353.46 143.96,328.13 161.919,325.12C172.109,323.41 185.41,325.12 197.63,325.12L411.93,325.12C422.9,325.12 439.491,323.77 445.27,326.9" style="fill-rule:nonzero;"/>
        </g>
    </g>
</svg>
