<?xml version="1.0" encoding="UTF-8" standalone="no"?>
<!DOCTYPE svg PUBLIC "-//W3C//DTD SVG 1.1//EN" "http://www.w3.org/Graphics/SVG/1.1/DTD/svg11.dtd">
<svg width="100%" height="100%" viewBox="0 0 514 514" version="1.1" xmlns="http://www.w3.org/2000/svg" xmlns:xlink="http://www.w3.org/1999/xlink" xml:space="preserve" style="fill-rule:evenodd;clip-rule:evenodd;stroke-linejoin:round;stroke-miterlimit:1.41421;">
    <g transform="matrix(10.3921,0,0,10.4957,-2869.67,-4629.96)">
        <path d="M320.86,455.2C329.07,472.28 312.849,493.24 292.88,486.15C285.54,483.551 276.45,474.621 279.19,459.961C280.67,452.02 286.759,445.511 297.64,443.89C307.799,442.371 317.62,448.471 320.86,455.2" style="fill:white;fill-rule:nonzero;"/>
    </g>
    <g id="Idea" transform="matrix(1,0,0,1,-44.1814,-178.171)">
        <path d="M316.69,624.42L285.14,624.42L285.14,632.159L316.69,632.159L316.69,624.42ZM336.33,588.11L336.33,580.37L266.09,580.37C264.72,581.78 265.88,585.72 265.5,588.11L336.33,588.11ZM336.33,610.14L336.33,602.4L266.09,602.4C264.72,603.81 265.88,607.74 265.5,610.14L336.33,610.14ZM350.02,412.5C336.83,413.2 331.03,406.5 323.83,401.19C314.07,415.11 286.38,413.62 276.81,400.6C271.4,408.21 261.69,410.77 251.8,412.5C268.02,452.64 282.35,494.66 284.54,548.82L317.28,548.82C319.47,494.66 334.03,452.86 350.02,412.5M382.17,470.84C416.08,445.63 441.98,389.89 424.43,330.36C412.35,289.33 382.49,259.73 343.48,245.83C330.99,241.38 314.75,236.16 297.64,237.49C278.55,238.97 262.59,242.6 248.83,248.8C205.34,268.42 174.31,310.95 172.04,364.88C170.02,412.63 190.34,446.37 214.9,466.68C223.48,473.77 234.12,478.47 242.28,487.51C254.5,501.03 260.44,520.35 264.3,541.68C264.69,543.79 264.08,549.4 268.47,548.82C271.73,546.95 270.41,541.94 270.26,539.3C268.05,501.18 256.97,468.53 246.45,438.7C242.37,427.14 238.96,414.98 233.95,405.36C231.42,400.52 226.94,397.23 225.02,392.26C223.14,387.41 221.19,373.96 229.78,373.81C238.72,373.65 238.66,392.38 247.04,396.43C253.94,399.77 264.51,395.7 267.88,389.88C271.24,384.08 268.83,373.76 277.4,373.81C285.27,373.86 282.87,383.01 286.33,389.29C291.5,398.69 308.64,401.75 315.5,389.29C319.52,381.98 317.12,373.46 325.02,373.81C332.7,374.15 329.85,381.66 332.76,388.69C336.58,397.93 347.97,400.33 356.57,396.43C363.53,389.31 361.81,374.13 372.65,375C381.06,375.68 378.81,388.78 376.22,394.65C373.71,400.33 369.2,404.45 366.69,410.12C350.36,447.03 335.58,489.43 332.17,538.7C331.71,545.31 330.39,548.52 333.95,548.82C337.61,549.14 338.02,538.56 338.71,535.13C341.91,519.27 347.49,503.62 353.6,494.65C360.05,485.17 373.04,477.63 382.17,470.84M557.78,422.62C561.75,505.98 527.62,568 488.72,610.14C447.58,654.72 391.09,686.92 313.12,691.1C231.74,695.45 169.82,662.57 126.2,622.64C81.01,581.27 49.27,526.4 44.65,447.63C39.8,365.16 73.3,302.32 112.51,260.11C142.67,227.65 181.74,201.65 232.75,187.49C250.52,182.56 269.74,179.57 288.71,178.56C371.72,174.12 433.12,208.36 476.22,247.61C518.74,286.33 554.12,345.81 557.78,422.62" style="fill-rule:nonzero;"/>
    </g>
</svg>
