<?xml version="1.0" encoding="UTF-8" standalone="no"?>
<!DOCTYPE svg PUBLIC "-//W3C//DTD SVG 1.1//EN" "http://www.w3.org/Graphics/SVG/1.1/DTD/svg11.dtd">
<svg width="100%" height="100%" viewBox="0 0 514 514" version="1.1" xmlns="http://www.w3.org/2000/svg" xmlns:xlink="http://www.w3.org/1999/xlink" xml:space="preserve" style="fill-rule:evenodd;clip-rule:evenodd;stroke-linejoin:round;stroke-miterlimit:1.41421;">
    <g transform="matrix(10.3921,0,0,10.4957,-2869.67,-4629.96)">
        <path d="M320.86,455.2C329.07,472.28 312.849,493.24 292.88,486.15C285.54,483.551 276.45,474.621 279.19,459.961C280.67,452.02 286.759,445.511 297.64,443.89C307.799,442.371 317.62,448.471 320.86,455.2" style="fill:white;fill-rule:nonzero;"/>
    </g>
    <g id="Info" transform="matrix(0.928467,0,0,0.929553,-19.1055,-123.242)">
        <path d="M483.34,477.93C492.74,454.45 499.83,423.75 497.441,391.38C493.07,332.29 466.96,286.09 433.33,255.46C400.91,225.94 348.21,197.96 285.23,202.89C224.9,207.6 178.54,234.17 148.67,267.64C118.96,300.93 91.49,350.9 96.74,415.1C101.61,474.68 125.34,519.15 160.85,551.02C194.67,581.36 244.74,607.92 308.31,602.95C394.151,596.23 455.91,546.35 483.34,477.93M573.731,395.86C578.01,485.64 541.25,552.43 499.361,597.82C455.05,645.84 394.21,680.52 310.231,685.01C222.59,689.7 155.9,654.29 108.92,611.28C60.25,566.72 26.07,507.63 21.08,422.79C15.87,333.97 51.94,266.29 94.17,220.84C126.66,185.87 168.74,157.87 223.68,142.62C242.81,137.31 263.51,134.1 283.95,133C373.34,128.22 439.481,165.1 485.901,207.37C531.691,249.07 569.79,313.14 573.731,395.86" style="fill-rule:nonzero;"/>
        <path d="M268.56,295.21C273.56,329.58 328.62,324.18 328.18,290.08C327.97,273.46 314.05,259.6 292.28,263.15C277.15,265.62 265.87,276.74 268.56,295.21M346.13,521.52C345.72,511.46 346.97,499.751 345.49,490.751L327.54,490.751C326.04,441.81 327.69,389.73 326.26,340.73C299.91,340.24 275.54,341.72 249.32,341.37C249.74,352.07 248.49,364.43 249.97,374.07L270.48,374.07C269.71,413.53 272.47,452.86 270.48,491.39L248.68,491.39L248.68,522.17C280.96,521.74 314.93,523.02 346.13,521.52M464.74,390.73C468.61,446.751 447.26,486.59 421.15,515.11C393.8,544.98 359.46,566.3 308.95,570.251C256.49,574.35 214.25,553.791 184.57,527.94C154.46,501.7 133.53,464.95 129.43,415.74C124.86,360.82 146.46,320.08 171.75,291.36C196.43,263.33 234.24,239.52 284.59,235.58C338.42,231.37 382.14,253.19 409.61,278.54C437.5,304.29 461.33,341.29 464.74,390.73" style="fill-rule:nonzero;"/>
    </g>
</svg>
