<?xml version="1.0" encoding="UTF-8" standalone="no"?>
<!DOCTYPE svg PUBLIC "-//W3C//DTD SVG 1.1//EN" "http://www.w3.org/Graphics/SVG/1.1/DTD/svg11.dtd">
<svg width="100%" height="100%" viewBox="0 0 514 514" version="1.1" xmlns="http://www.w3.org/2000/svg" xmlns:xlink="http://www.w3.org/1999/xlink" xml:space="preserve" style="fill-rule:evenodd;clip-rule:evenodd;stroke-linejoin:round;stroke-miterlimit:1.41421;">
    <g transform="matrix(10.3921,0,0,10.4957,-2869.67,-4629.96)">
        <path d="M320.86,455.2C329.07,472.28 312.849,493.24 292.88,486.15C285.54,483.551 276.45,474.621 279.19,459.961C280.67,452.02 286.759,445.511 297.64,443.89C307.799,442.371 317.62,448.471 320.86,455.2" style="fill:white;fill-rule:nonzero;"/>
    </g>
    <g id="Music" transform="matrix(1,0,0,1.00114,-44.1813,-147.338)">
        <path d="M444.67,369.6C444.67,352.81 446,337.11 444.67,324.36C441.21,291.02 403.4,277.77 376.81,266.62C358.93,259.12 328.941,248.24 323.24,229.71C321.1,222.76 323.941,205.87 320.86,199.94C316.28,191.17 296.5,191.86 292.28,199.94C288.99,206.25 291.09,223.16 291.09,233.87L291.09,479.73C261.21,463.61 217.24,471.9 193.47,490.44C178,502.51 165.23,525.03 167.87,550.56C170.34,574.47 191.38,588.94 210.13,595.21C262.44,612.71 310.75,580.91 320.26,538.66C323.5,524.27 322.05,508.86 322.05,494.01L322.05,353.53C338.31,363.4 351.95,368.97 369.07,376.15C383.21,382.07 407.51,388.96 412.53,402.93C415.76,411.92 413.47,425 429.79,424.36C450.9,423.55 444.67,392.72 444.67,369.6M557.78,391.62C561.75,474.98 527.62,537 488.731,579.14C447.58,623.72 391.09,655.92 313.12,660.1C231.74,664.45 169.82,631.57 126.2,591.64C81.01,550.27 49.27,495.4 44.65,416.63C39.8,334.16 73.3,271.32 112.51,229.11C142.67,196.65 181.74,170.65 232.75,156.49C250.52,151.56 269.74,148.57 288.71,147.56C371.72,143.12 433.12,177.36 476.22,216.61C518.74,255.33 554.12,314.81 557.78,391.62" style="fill-rule:nonzero;"/>
    </g>
</svg>
