<?xml version="1.0" encoding="UTF-8" standalone="no"?>
<!DOCTYPE svg PUBLIC "-//W3C//DTD SVG 1.1//EN" "http://www.w3.org/Graphics/SVG/1.1/DTD/svg11.dtd">
<svg width="100%" height="100%" viewBox="0 0 309 546" version="1.1" xmlns="http://www.w3.org/2000/svg" xmlns:xlink="http://www.w3.org/1999/xlink" xml:space="preserve" style="fill-rule:evenodd;clip-rule:evenodd;stroke-linejoin:round;stroke-miterlimit:1.41421;">
    <g id="Livello-1" transform="matrix(4.16667,0,0,4.16667,0,6.11396)">
        <path d="M10.031,110.269C10.031,109.513 9.837,108.915 9.448,108.473C9.059,108.033 8.362,107.601 7.359,107.184C5.405,106.494 3.934,105.709 2.947,104.836C1.963,103.964 1.468,102.745 1.468,101.174C1.468,99.61 2.032,98.339 3.158,97.357C4.284,96.375 5.72,95.884 7.464,95.884C9.313,95.884 10.803,96.409 11.928,97.456C13.054,98.5 13.6,99.909 13.564,101.67L13.539,101.748L9.952,101.748C9.952,100.762 9.731,100.016 9.291,99.503C8.849,98.994 8.218,98.736 7.4,98.736C6.692,98.736 6.141,98.974 5.75,99.44C5.357,99.908 5.159,100.491 5.159,101.184C5.159,101.831 5.383,102.366 5.828,102.781C6.273,103.203 7.036,103.662 8.118,104.158C9.961,104.768 11.354,105.542 12.301,106.476C13.248,107.411 13.722,108.664 13.722,110.247C13.722,111.876 13.168,113.159 12.06,114.095C10.95,115.028 9.48,115.495 7.647,115.495C5.842,115.495 4.297,114.991 3.014,113.983C1.731,112.973 1.111,111.44 1.155,109.381L1.182,109.301L4.781,109.301C4.781,110.498 5.023,111.357 5.508,111.879C5.992,112.409 6.705,112.665 7.647,112.665C8.442,112.665 9.037,112.45 9.434,112.013C9.831,111.574 10.031,110.995 10.031,110.269" style="fill:rgb(35,31,32);fill-rule:nonzero;"/>
        <path d="M25.171,106.775L25.171,112.339L27.868,112.339C28.671,112.339 29.276,112.114 29.688,111.666C30.097,111.219 30.3,110.55 30.3,109.668C30.3,108.758 30.114,108.058 29.74,107.56C29.363,107.063 28.777,106.802 27.985,106.775L27.855,106.775L25.171,106.775ZM25.171,104.224L27.108,104.224C27.901,104.207 28.507,103.982 28.928,103.557C29.346,103.128 29.555,102.507 29.555,101.695C29.555,100.791 29.338,100.122 28.901,99.695C28.465,99.266 27.809,99.051 26.937,99.051L25.171,99.051L25.171,104.224ZM21.479,115.219L21.479,96.16L26.937,96.16C28.928,96.16 30.476,96.594 31.585,97.462C32.692,98.33 33.246,99.629 33.246,101.356C33.246,102.255 33.044,103.057 32.641,103.76C32.233,104.458 31.633,104.984 30.838,105.322C31.902,105.544 32.695,106.049 33.215,106.856C33.734,107.659 33.994,108.593 33.994,109.668C33.994,111.494 33.463,112.874 32.402,113.811C31.342,114.75 29.832,115.219 27.868,115.219L21.479,115.219Z" style="fill:rgb(35,31,32);fill-rule:nonzero;"/>
        <path d="M47.259,110.349L47.419,111.149L47.492,111.149L47.655,110.39L50.952,96.161L54.842,96.161L49.38,115.22L45.547,115.22L40.116,96.161L44.001,96.161L47.259,110.349Z" style="fill:rgb(35,31,32);fill-rule:nonzero;"/>
        <path d="M65.464,112.34L72.574,112.34L72.574,115.22L61.774,115.22L61.774,96.16L65.464,96.16L65.464,112.34Z" style="fill:rgb(35,31,32);fill-rule:nonzero;"/>
        <path d="M1.152,127.032L1.152,120.547L5.295,120.547L5.295,121.43L2.134,121.43L2.134,123.326L4.831,123.326L4.831,124.199L2.134,124.199L2.134,126.149L5.295,126.149L5.295,127.032L1.152,127.032Z" style="fill:rgb(35,31,32);fill-rule:nonzero;"/>
        <path d="M12.005,127.087C11.032,127.087 10.329,126.858 9.709,126.231L10.367,125.583C10.84,126.057 11.359,126.206 12.022,126.206C12.87,126.206 13.362,125.838 13.362,125.209C13.362,124.928 13.28,124.69 13.108,124.536C12.942,124.383 12.78,124.317 12.397,124.264L11.632,124.153C11.103,124.083 10.684,123.898 10.402,123.633C10.084,123.334 9.929,122.927 9.929,122.397C9.929,121.269 10.748,120.496 12.096,120.496C12.951,120.496 13.553,120.713 14.109,121.233L13.481,121.851C13.081,121.468 12.616,121.352 12.069,121.352C11.305,121.352 10.885,121.788 10.885,122.36C10.885,122.595 10.96,122.806 11.132,122.961C11.296,123.105 11.559,123.213 11.859,123.262L12.597,123.372C13.197,123.461 13.536,123.606 13.809,123.855C14.163,124.164 14.336,124.627 14.336,125.183C14.336,126.376 13.362,127.087 12.005,127.087" style="fill:rgb(35,31,32);fill-rule:nonzero;"/>
        <path d="M21.492,121.431L21.492,127.033L20.509,127.033L20.509,121.431L18.725,121.431L18.725,120.547L23.277,120.547L23.277,121.431L21.492,121.431Z" style="fill:rgb(35,31,32);fill-rule:nonzero;"/>
        <path d="M31.316,121.868C31.044,121.568 30.679,121.43 30.214,121.43L29.021,121.43L29.021,126.149L30.214,126.149C30.679,126.149 31.044,126.013 31.316,125.712C31.654,125.335 31.663,124.636 31.663,123.744C31.663,122.851 31.654,122.24 31.316,121.868M31.992,126.423C31.582,126.834 30.988,127.032 30.315,127.032L28.038,127.032L28.038,120.547L30.315,120.547C30.988,120.547 31.582,120.749 31.992,121.158C32.691,121.857 32.647,122.806 32.647,123.744C32.647,124.681 32.691,125.721 31.992,126.423" style="fill:rgb(35,31,32);fill-rule:nonzero;"/>
        <path d="M43.298,127.032L43.298,126.206L45.793,123.171C46.036,122.869 46.14,122.634 46.14,122.308C46.14,121.722 45.793,121.322 45.192,121.322C44.699,121.322 44.236,121.596 44.236,122.325L43.307,122.325C43.307,121.22 44.088,120.496 45.192,120.496C46.303,120.496 47.068,121.194 47.068,122.317C47.068,122.886 46.86,123.222 46.456,123.716L44.426,126.206L47.068,126.206L47.068,127.032L43.298,127.032Z" style="fill:rgb(35,31,32);fill-rule:nonzero;"/>
        <path d="M54.585,122.378C54.585,121.749 54.232,121.322 53.643,121.322C53.052,121.322 52.707,121.749 52.707,122.378L52.707,125.2C52.707,125.829 53.052,126.258 53.643,126.258C54.232,126.258 54.585,125.829 54.585,125.2L54.585,122.378ZM53.643,127.087C52.612,127.087 51.773,126.384 51.773,125.227L51.773,122.351C51.773,121.194 52.612,120.496 53.643,120.496C54.67,120.496 55.52,121.194 55.52,122.351L55.52,125.227C55.52,126.384 54.67,127.087 53.643,127.087" style="fill:rgb(35,31,32);fill-rule:nonzero;"/>
        <path d="M63.084,122.378C63.084,121.749 62.728,121.322 62.132,121.322C61.544,121.322 61.195,121.749 61.195,122.378L61.195,125.2C61.195,125.829 61.544,126.258 62.132,126.258C62.728,126.258 63.084,125.829 63.084,125.2L63.084,122.378ZM62.132,127.087C61.105,127.087 60.271,126.384 60.271,125.227L60.271,122.351C60.271,121.194 61.105,120.496 62.132,120.496C63.165,120.496 64.012,121.194 64.012,122.351L64.012,125.227C64.012,126.384 63.165,127.087 62.132,127.087" style="fill:rgb(35,31,32);fill-rule:nonzero;"/>
        <path d="M70.631,124.008C70.048,124.008 69.65,124.426 69.65,125.129C69.65,125.82 70.048,126.258 70.631,126.258C71.212,126.258 71.623,125.82 71.623,125.129C71.623,124.49 71.25,124.008 70.631,124.008M70.638,127.087C69.52,127.087 68.717,126.35 68.717,125.147C68.717,124.62 68.916,124.116 69.2,123.552L70.681,120.549L71.668,120.549L70.277,123.334C70.448,123.262 70.649,123.234 70.847,123.234C71.79,123.234 72.553,123.97 72.553,125.111C72.553,126.302 71.759,127.087 70.638,127.087" style="fill:rgb(35,31,32);fill-rule:nonzero;"/>
        <path d="M72.632,42.94L72.632,19.787L36.892,0.978L1.152,19.787L1.152,65.434L11.799,59.961L36.892,46.667L58.412,57.263L58.412,63.362L36.892,73.961L16.376,63.863L1.266,71.631L36.892,90.378L72.632,71.572L72.632,49.055L36.892,30.248L15.37,40.846L15.37,27.992L36.892,17.395L58.412,27.992L58.412,35.565L72.632,42.94Z" style="fill:rgb(35,31,32);fill-rule:nonzero;"/>
    </g>
</svg>
