<?xml version="1.0" encoding="UTF-8" standalone="no"?>
<!DOCTYPE svg PUBLIC "-//W3C//DTD SVG 1.1//EN" "http://www.w3.org/Graphics/SVG/1.1/DTD/svg11.dtd">
<svg width="100%" height="100%" viewBox="0 0 70 100" version="1.1" xmlns="http://www.w3.org/2000/svg" xmlns:xlink="http://www.w3.org/1999/xlink" xml:space="preserve" style="fill-rule:evenodd;clip-rule:evenodd;stroke-linejoin:round;stroke-miterlimit:1.41421;">
    <g transform="matrix(0.811926,0,0,0.811926,2.31675,1.96924)">
        <path d="M17.112,104.05C17.112,103.395 16.944,102.88 16.61,102.499C16.275,102.12 15.675,101.749 14.811,101.387C13.127,100.794 11.86,100.12 11.01,99.368C10.161,98.616 9.735,97.566 9.735,96.212C9.735,94.864 10.221,93.769 11.191,92.923C12.161,92.077 13.397,91.655 14.901,91.655C16.495,91.655 17.777,92.107 18.747,93.007C19.717,93.909 20.187,95.122 20.156,96.64L20.134,96.708L17.044,96.708C17.044,95.859 16.854,95.212 16.474,94.775C16.095,94.333 15.551,94.112 14.845,94.112C14.236,94.112 13.762,94.316 13.424,94.718C13.085,95.12 12.916,95.622 12.916,96.222C12.916,96.779 13.108,97.237 13.491,97.599C13.875,97.96 14.532,98.355 15.465,98.782C17.051,99.308 18.252,99.976 19.068,100.779C19.884,101.583 20.292,102.665 20.292,104.026C20.292,105.432 19.814,106.538 18.859,107.343C17.904,108.147 16.638,108.55 15.059,108.55C13.502,108.55 12.171,108.114 11.066,107.247C9.961,106.378 9.427,105.055 9.465,103.282L9.488,103.214L12.589,103.214C12.589,104.245 12.797,104.985 13.215,105.436C13.632,105.889 14.247,106.112 15.059,106.112C15.743,106.112 16.256,105.925 16.598,105.55C16.94,105.173 17.112,104.673 17.112,104.05Z" style="fill-rule:nonzero;"/>
    </g>
    <g transform="matrix(0.811926,0,0,0.811926,2.31675,1.96924)">
        <path d="M30.156,101.038L30.156,105.831L32.479,105.831C33.17,105.831 33.693,105.637 34.046,105.251C34.399,104.864 34.576,104.29 34.576,103.53C34.576,102.747 34.415,102.143 34.092,101.716C33.768,101.286 33.264,101.059 32.58,101.038L32.468,101.038L30.156,101.038ZM30.156,98.839L31.825,98.839C32.509,98.825 33.031,98.632 33.393,98.265C33.753,97.896 33.933,97.361 33.933,96.661C33.933,95.882 33.746,95.306 33.37,94.937C32.994,94.57 32.429,94.384 31.678,94.384L30.156,94.384L30.156,98.839ZM26.975,108.311L26.975,91.892L31.678,91.892C33.393,91.892 34.727,92.267 35.682,93.013C36.637,93.763 37.114,94.88 37.114,96.368C37.114,97.144 36.939,97.835 36.589,98.439C36.24,99.042 35.723,99.493 35.039,99.786C35.956,99.976 36.638,100.413 37.085,101.106C37.533,101.798 37.756,102.604 37.756,103.53C37.756,105.102 37.3,106.292 36.386,107.098C35.473,107.907 34.17,108.311 32.479,108.311L26.975,108.311Z" style="fill-rule:nonzero;"/>
    </g>
    <g transform="matrix(0.811926,0,0,0.811926,2.31675,1.96924)">
        <path d="M49.186,104.116L49.323,104.805L49.389,104.805L49.526,104.151L52.368,91.892L55.717,91.892L51.014,108.311L47.71,108.311L43.03,91.892L46.379,91.892L49.186,104.116Z" style="fill-rule:nonzero;"/>
    </g>
    <g transform="matrix(0.811926,0,0,0.811926,2.31675,1.96924)">
        <path d="M64.87,105.831L70.995,105.831L70.995,108.311L61.69,108.311L61.69,91.892L64.87,91.892L64.87,105.831Z" style="fill-rule:nonzero;"/>
    </g>
    <g transform="matrix(0.811926,0,0,0.811926,2.31675,1.96924)">
        <path d="M71.045,46.042L71.045,26.094L40.253,9.891L9.463,26.094L9.463,65.42L18.637,60.706L40.253,49.252L58.795,58.382L58.795,63.638L40.253,72.767L22.578,64.068L9.562,70.759L40.253,86.911L71.045,70.708L71.045,51.311L40.253,35.106L21.712,44.238L21.712,33.164L40.253,24.034L58.795,33.164L58.795,39.688L71.045,46.042Z" style="fill-rule:nonzero;"/>
    </g>
</svg>
