<?xml version="1.0" encoding="UTF-8" standalone="no"?>
<!DOCTYPE svg PUBLIC "-//W3C//DTD SVG 1.1//EN" "http://www.w3.org/Graphics/SVG/1.1/DTD/svg11.dtd">
<svg width="100%" height="100%" viewBox="0 0 514 514" version="1.1" xmlns="http://www.w3.org/2000/svg" xmlns:xlink="http://www.w3.org/1999/xlink" xml:space="preserve" style="fill-rule:evenodd;clip-rule:evenodd;stroke-linejoin:round;stroke-miterlimit:1.41421;">
    <g transform="matrix(10.3921,0,0,10.4957,-2869.67,-4629.96)">
        <path d="M320.86,455.2C329.07,472.28 312.849,493.24 292.88,486.15C285.54,483.551 276.45,474.621 279.19,459.961C280.67,452.02 286.759,445.511 297.64,443.89C307.799,442.371 317.62,448.471 320.86,455.2" style="fill:white;fill-rule:nonzero;"/>
    </g>
    <g id="Schedule" transform="matrix(1,0,0,1.00114,-44.1815,-173.368)">
        <path d="M235.14,449.77L235.14,410.48L196.44,410.48C195.05,422.39 196.24,436.871 195.85,449.77L235.14,449.77ZM235.14,500.371L235.14,461.081L196.44,461.081C195.05,472.99 196.24,487.47 195.85,500.371L235.14,500.371ZM235.14,551.56L235.14,512.27L196.44,512.27C195.05,524.18 196.24,538.66 195.85,551.56L235.14,551.56ZM235.14,339.05C253.82,338.29 249.42,313.47 249.42,291.42C249.42,279.63 251.65,259.8 248.23,252.14C245.36,245.7 236.65,243.19 230.97,244.4C214.95,247.79 219.66,271.72 219.66,290.83C219.66,312.76 214.83,339.87 235.14,339.05M291.09,499.77C290.65,487.95 290.59,474.91 291.09,461.68C278.98,460.3 264.31,461.47 251.21,461.081L251.21,500.371C264.31,499.97 278.99,501.16 291.09,499.77M291.09,550.97C290.19,537.46 291.46,525.42 290.5,512.27L251.21,512.27L251.21,551.56C264.31,551.17 278.98,552.35 291.09,550.97M291.09,410.48L251.21,410.48L251.21,449.77L290.5,449.77C291.37,438.13 290.22,423.43 291.09,410.48M343.48,410.48L307.17,410.48C307.559,421.99 306.37,435.081 307.76,445.6C308.44,441.61 313.24,439.68 314.309,434.89C315.5,429.56 312.93,423.621 314.9,417.62C328.28,419.09 337.46,416.37 343.48,410.48M370.26,339.05C390,339.05 385.15,313.39 385.15,290.83C385.15,279.05 387.3,259.92 383.96,252.14C381.01,245.28 372.37,243.43 367.29,244.4C350.769,247.53 355.38,267.92 355.38,291.42C355.38,313.95 351.18,339.05 370.26,339.05M465.51,327.14C465.51,315.56 467.08,303.43 464.91,294.4C462.63,284.86 453.38,275.24 444.08,272.97C429.45,269.41 409.26,274.41 391.099,272.38C388.22,291.15 395.22,313.46 390.5,330.71C385.76,348.09 356.88,350.16 350.62,331.31C345.099,314.69 352.28,292.18 349.43,272.38L255.38,272.38C252.39,290.7 259.62,314.26 254.78,330.71C249.15,349.87 220.14,348.64 214.3,330.71C208.05,311.53 216.52,292.98 213.11,272.38C197.94,273.65 178.23,270.41 163.11,272.97C154.1,274.5 144.39,281.8 141.08,290.23C137.22,300.08 139.3,318.03 139.3,331.31L139.3,536.081C139.3,548.06 137.68,561.07 139.89,570.02C141.93,578.291 150.73,587.68 158.34,590.26C171,594.53 190.96,591.45 206.56,591.45C259.4,591.45 305.48,591.94 355.98,590.85C348.76,588.36 344.309,586.14 338.71,582.52C333.89,579.39 327.86,571.42 322.05,570.02C311.82,567.55 296.76,570.02 283.95,570.02L207.75,570.02C195.41,570.02 179.01,572.25 170.25,568.831C159.24,564.52 161.39,554 161.32,540.25C161.09,490.98 161.18,443.82 160.73,396.19L443.48,396.19L443.48,410.48C446.769,413.25 451.559,415.25 455.39,418.22C459.059,421.07 462,426.69 465.51,425.96L465.51,327.14ZM486.34,510.49C491.46,468.66 469.92,436.67 446.46,420.6C433.04,411.41 411.58,402.98 389.309,404.53C367.94,406.01 352.57,412.2 339.309,421.79C324.72,432.35 316.61,441.43 308.95,457.51C293.24,490.46 300.73,528.31 314.9,549.78C330.42,573.27 357.51,590.78 391.099,591.45C439.92,592.41 480.559,557.75 486.34,510.49M557.78,417.62C561.75,500.98 527.62,563 488.73,605.14C447.58,649.72 391.09,681.92 313.12,686.1C231.74,690.45 169.82,657.57 126.2,617.64C81.01,576.27 49.27,521.4 44.65,442.63C39.8,360.16 73.3,297.32 112.51,255.11C142.67,222.65 181.74,196.65 232.75,182.49C250.52,177.56 269.74,174.57 288.71,173.56C371.72,169.12 433.12,203.36 476.22,242.61C518.74,281.33 554.12,340.81 557.78,417.62" style="fill-rule:nonzero;"/>
        <path d="M444.67,506.32C445.65,502.45 445.65,494.72 444.67,490.841L401.22,490.841C402.05,472.56 401.04,452.73 401.81,433.1C397.97,431.78 391.75,432.85 386.93,432.51C386.1,454.041 386.02,483.35 386.93,506.32C406.1,505.881 424.78,505.97 444.67,506.32M470.87,475.961C479.27,506.66 467.75,534.791 453.6,550.97C438.16,568.621 412,580.68 383.96,577.751C335.191,572.66 294.39,516.43 322.05,461.68C327.39,451.1 334.981,440.93 347.05,432.51C357.77,425.02 370.65,419.54 387.53,418.22C409.25,416.52 428.731,424.14 442.29,434.291C455.37,444.081 465.54,456.501 470.87,475.961" style="fill-rule:nonzero;"/>
    </g>
</svg>
