<?xml version="1.0" encoding="UTF-8" standalone="no"?>
<!DOCTYPE svg PUBLIC "-//W3C//DTD SVG 1.1//EN" "http://www.w3.org/Graphics/SVG/1.1/DTD/svg11.dtd">
<svg width="100%" height="100%" viewBox="0 0 514 514" version="1.1" xmlns="http://www.w3.org/2000/svg" xmlns:xlink="http://www.w3.org/1999/xlink" xml:space="preserve" style="fill-rule:evenodd;clip-rule:evenodd;stroke-linejoin:round;stroke-miterlimit:1.41421;">
    <g transform="matrix(10.3921,0,0,10.4957,-2869.67,-4629.96)">
        <path d="M320.86,455.2C329.07,472.28 312.849,493.24 292.88,486.15C285.54,483.551 276.45,474.621 279.19,459.961C280.67,452.02 286.759,445.511 297.64,443.89C307.799,442.371 317.62,448.471 320.86,455.2" style="fill:white;fill-rule:nonzero;"/>
    </g>
    <g id="Script" transform="matrix(1,0,0,1.00114,-44.1813,-176.372)">
        <path d="M367.88,382.53C368.36,369.56 355.96,371.22 342.88,371.22L275.02,371.22C264.69,371.22 247.93,369.72 240.49,371.81C235.61,373.18 231.33,377.27 232.75,384.91C234.66,395.14 250.15,392.65 264.3,392.65L330.981,392.65C347.83,392.65 367.37,396.35 367.88,382.53M341.691,441.46C356.45,441.46 369.79,442 367.88,428.36C366.68,419.75 356.46,419.43 343.481,419.43L310.14,419.43C285.52,419.43 260.06,416.4 242.28,420.03C236.11,421.29 231.25,424.55 232.75,433.12C234.55,443.34 249.56,441.46 263.11,441.46L341.691,441.46ZM367.88,334.9C368.901,324.13 361.89,323 350.62,323L272.04,323C262.03,323 246.79,321.61 239.9,323.59C233.91,325.31 231.28,329.96 232.75,336.69C234.76,345.85 249.28,344.43 263.11,344.43L339.31,344.43C352.941,344.43 366.84,345.94 367.88,334.9M328,489.68C345.39,489.68 370.06,494.46 367.88,477.18C366.62,467.18 354.79,468.25 342.88,468.25L275.02,468.25C264.46,468.25 248.29,466.67 240.49,468.84C234.32,470.56 231.06,475.37 232.75,482.53C234.65,490.53 246.68,489.68 259.54,489.68L328,489.68ZM468.49,325.38C470.92,300.56 459.41,282.07 446.46,270.02C431.29,255.91 412.481,251.56 384.55,251.56L304.191,251.56C276.38,251.56 248.86,249.72 223.83,251.56C203.59,253.05 186.95,262.61 179.18,277.16C166.63,300.69 172.04,346.8 172.04,381.93L172.04,437.89C172.04,448.63 169,487.239 174.42,492.06C178.47,495.659 201.86,494.949 204.78,492.06C207.27,489.58 206.56,478.25 206.56,469.44C206.56,419.22 205.85,370.71 207.16,323.59C207.4,314.8 205.86,305.38 207.75,299.19C211.79,285.94 224.55,286.86 241.09,286.09C296.54,283.51 347.67,288.03 402.41,286.09C392.85,297.3 394.27,315.13 393.481,334.31C391.24,388.61 393.481,442.29 393.481,498.01C393.481,516.82 398.16,552.73 383.36,553.97C373.901,554.76 366.82,544.96 363.72,539.68C359.63,532.73 358.33,518.97 352.41,515.87C347.89,513.5 334.59,514.68 325.62,514.68L157.75,514.68C148.17,514.68 134.96,513.27 132.15,517.06C128.29,522.27 133.37,535.73 135.72,542.06C139.14,551.239 142.96,556.909 147.03,562.3C155.96,574.1 171.23,588.61 185.73,590.28C202.06,592.159 220.58,590.28 238.71,590.28L344.67,590.28C361.84,590.28 384.731,592.96 397.651,589.68C412.55,585.9 427.27,566.05 428.6,548.01C429.93,530.02 428.01,511.39 428.01,493.25C428.01,436.26 427.61,383.91 428.6,327.76C441.61,326.68 459.24,330.22 468.49,325.38M557.78,420.62C561.75,503.98 527.62,566 488.72,608.14C447.58,652.72 391.09,684.92 313.12,689.1C231.74,693.449 169.82,660.57 126.2,620.64C81.01,579.27 49.27,524.4 44.65,445.63C39.8,363.16 73.3,300.32 112.51,258.11C142.67,225.65 181.74,199.65 232.75,185.49C250.52,180.56 269.74,177.57 288.71,176.56C371.72,172.12 433.12,206.36 476.22,245.61C518.74,284.33 554.12,343.81 557.78,420.62" style="fill-rule:nonzero;"/>
    </g>
</svg>
