<?xml version="1.0" encoding="UTF-8" standalone="no"?>
<!DOCTYPE svg PUBLIC "-//W3C//DTD SVG 1.1//EN" "http://www.w3.org/Graphics/SVG/1.1/DTD/svg11.dtd">
<svg width="100%" height="100%" viewBox="0 0 514 514" version="1.1" xmlns="http://www.w3.org/2000/svg" xmlns:xlink="http://www.w3.org/1999/xlink" xml:space="preserve" style="fill-rule:evenodd;clip-rule:evenodd;stroke-linejoin:round;stroke-miterlimit:1.41421;">
    <g transform="matrix(10.3921,0,0,10.4957,-2869.67,-4629.96)">
        <path d="M320.86,455.2C329.07,472.28 312.849,493.24 292.88,486.15C285.54,483.551 276.45,474.621 279.19,459.961C280.67,452.02 286.759,445.511 297.64,443.89C307.799,442.371 317.62,448.471 320.86,455.2" style="fill:white;fill-rule:nonzero;"/>
    </g>
    <g id="Search" transform="matrix(0.991646,0,0,0.992785,-39.2187,-143.465)">
        <path d="M473.42,550.69C475.481,535.35 463.59,528.86 455.42,520.68C440.9,506.16 429.78,494.44 415.2,479.86C405.81,470.47 396.87,457.38 379.78,462.45C375.29,459.1 369.27,454.2 367.77,449.85C384.77,429.36 399.731,403.85 404.39,372.41C409.68,336.72 402.03,303.04 388.78,276.97C376.34,252.48 358.52,232.56 334.16,216.94C310.77,201.94 279.44,191.38 242.92,193.53C197.3,196.21 164.72,216.19 139.07,242.75C114.03,268.68 96.07,307.05 97.65,352.6C99.18,396.92 117.52,431.3 143.87,457.65C170.07,483.85 204.1,502.07 250.72,502.07C297.6,502.07 327.01,485.47 354.57,463.05C358.691,468.95 365.57,469.84 366.57,476.26C367.02,479.1 364.72,482.67 365.37,487.06C366.6,495.3 376.6,503.69 382.78,509.871C397.231,524.331 409.14,536.23 423,550.09C428.88,555.98 437.45,566.581 445.21,568.7C459.45,572.59 471.86,562.331 473.42,550.69M557.46,391.02C561.47,475.081 527.05,537.61 487.83,580.11C446.34,625.07 389.38,657.541 310.75,661.751C228.69,666.14 166.25,632.99 122.26,592.711C76.69,551.001 44.69,495.67 40.02,416.23C35.14,333.07 68.91,269.7 108.45,227.14C138.87,194.4 178.27,168.19 229.71,153.91C247.62,148.94 267,145.93 286.14,144.9C369.84,140.42 431.76,174.96 475.22,214.54C518.1,253.58 553.77,313.56 557.46,391.02" style="fill-rule:nonzero;"/>
        <path d="M264.53,239.15C210.33,238.12 166.66,271.77 150.47,314.78C145.26,328.64 142.28,344.39 143.87,361.61C166.12,302.82 207.04,262.7 264.53,239.15M343.16,257.16C363.93,277.92 382.941,313.86 379.78,358C377.27,392.99 361.17,421.24 340.16,440.84C318.18,461.35 287.28,475.66 252.52,475.66C214.98,475.66 186.19,461.91 164.28,441.44C141.04,419.73 120.12,385.12 124.06,336.39C126.77,302.89 142.06,276.77 160.68,257.76C178.96,239.08 204.47,223.95 239.31,220.54C285.36,216.03 321.08,235.08 343.16,257.16" style="fill-rule:nonzero;"/>
    </g>
</svg>
