<?xml version="1.0" encoding="UTF-8" standalone="no"?>
<!DOCTYPE svg PUBLIC "-//W3C//DTD SVG 1.1//EN" "http://www.w3.org/Graphics/SVG/1.1/DTD/svg11.dtd">
<svg width="100%" height="100%" viewBox="0 0 514 514" version="1.1" xmlns="http://www.w3.org/2000/svg" xmlns:xlink="http://www.w3.org/1999/xlink" xml:space="preserve" style="fill-rule:evenodd;clip-rule:evenodd;stroke-linejoin:round;stroke-miterlimit:1.41421;">
    <g transform="matrix(10.3921,0,0,10.4957,-2869.67,-4629.96)">
        <path d="M320.86,455.2C329.07,472.28 312.849,493.24 292.88,486.15C285.54,483.551 276.45,474.621 279.19,459.961C280.67,452.02 286.759,445.511 297.64,443.89C307.799,442.371 317.62,448.471 320.86,455.2" style="fill:white;fill-rule:nonzero;"/>
    </g>
    <g id="Shot" transform="matrix(1,0,0,1,-44.1815,-163.991)">
        <path d="M244.06,461.42C238.79,445.35 230.7,428.67 225.02,409.63C219.49,391.149 214.79,371.17 212.52,350.11C207.52,303.95 216.1,261.57 235.14,231.649L233.95,231.649C203.22,243.91 181.2,256.32 156.56,281.05C141.93,295.74 128.38,314.5 118.46,335.82C114.99,343.27 109.29,353.06 109.53,358.44C109.76,363.46 115.72,372.53 119.06,378.08C145.68,422.46 189.34,447.51 244.06,461.42M274.42,515C285.23,507.14 295.76,498.47 304.19,488.81C213.3,479.88 139.15,449.069 102.39,384.04C96.17,417.35 99.4,454.05 107.75,481.069C116.49,509.38 130.26,532.649 145.25,550.12C202.24,558.399 243.08,537.81 274.42,515M337.519,619.77C370.95,588.23 380.33,503.319 360.74,451.3C349.79,465.609 337.21,480.92 323.24,494.76C284.71,532.93 235.84,571.33 163.7,568.569C165.47,572.89 170.06,575.649 173.82,578.69C211.25,608.97 268.52,632.14 337.519,619.77M425.62,266.17C419.15,258.649 409.51,252.899 399.43,247.12C366.5,228.25 311.6,213.39 260.73,224.5C245.84,243.13 233.95,268.399 229.78,299.51C225.4,332.13 230.82,365.64 238.11,394.16C242.19,392.08 243.95,387.43 246.45,384.04C255.02,372.38 263.72,361.75 273.23,351.3C310.61,310.25 356,274.26 425.62,266.17M482.769,505.47C485.78,499.01 492.1,487.79 491.7,481.659C491.38,476.79 484.73,468.8 480.99,463.21C453.42,422.05 406.3,397.57 355.98,383.44L355.98,385.23C373.99,426.109 391.9,479.319 387.53,539.409C385.41,568.52 375.41,591.92 363.72,612.63C419.43,593.62 458.71,557.109 482.769,505.47M498.25,457.26C508.2,394.85 490.01,343.2 464.91,306.649C460.05,299.56 450.519,285.06 444.08,282.84C442.35,282.24 438.6,282.22 436.94,282.24C404.76,282.79 377.12,293.28 353,307.25C330.32,320.38 310.12,337.09 294.07,355.46C386.79,364.73 456.63,396.89 498.25,457.26M557.78,408.44C561.75,491.8 527.62,553.819 488.72,595.96C447.58,640.54 391.09,672.739 313.12,676.92C231.74,681.27 169.82,648.39 126.2,608.46C81.01,567.09 49.27,512.22 44.65,433.449C39.8,350.98 73.3,288.14 112.51,245.93C142.67,213.47 181.74,187.47 232.75,173.31C250.52,168.38 269.74,165.39 288.71,164.38C371.72,159.94 433.12,194.18 476.22,233.43C518.74,272.149 554.12,331.63 557.78,408.44" style="fill-rule:nonzero;"/>
    </g>
</svg>
