<?xml version="1.0" encoding="UTF-8" standalone="no"?>
<!DOCTYPE svg PUBLIC "-//W3C//DTD SVG 1.1//EN" "http://www.w3.org/Graphics/SVG/1.1/DTD/svg11.dtd">
<svg width="100%" height="100%" viewBox="0 0 514 514" version="1.1" xmlns="http://www.w3.org/2000/svg" xmlns:xlink="http://www.w3.org/1999/xlink" xml:space="preserve" style="fill-rule:evenodd;clip-rule:evenodd;stroke-linejoin:round;stroke-miterlimit:1.41421;">
    <g transform="matrix(10.3921,0,0,10.4957,-2869.67,-4629.96)">
        <path d="M320.86,455.2C329.07,472.28 312.849,493.24 292.88,486.15C285.54,483.551 276.45,474.621 279.19,459.961C280.67,452.02 286.759,445.511 297.64,443.89C307.799,442.371 317.62,448.471 320.86,455.2" style="fill:white;fill-rule:nonzero;"/>
    </g>
    <g id="Vfx" transform="matrix(1,0,0,1,-44.1816,-143.171)">
        <path d="M472.65,494.77C450.07,494.35 414.16,496.71 390.5,492.99C379.44,491.25 357.92,486.66 369.07,474.53C374.469,468.67 387.08,462.53 394.08,458.46C396.91,456.81 401.379,455.88 402.41,452.51C382.42,456.53 359.099,465.56 333.95,464.42C338.69,433.041 342.96,401.19 348.83,370.96C357.83,376.15 371.25,373.16 378,367.98C396.889,378 418.059,365.62 419.67,347.14C437.23,345.97 445.65,328.94 439.91,312.02C439.009,309.37 436.24,307.43 435.75,304.28C434.929,299.07 437.799,291.82 435.15,287.62C442.99,272.95 435.67,251.74 420.269,249.52C417.03,238.69 405.57,232.39 391.099,236.42C388.139,232.43 386.86,226.77 379.19,227.49C375.2,220.21 366.75,212.72 354.79,214.99C351.61,215.6 349.57,218.63 345.86,219.16C340.83,204.45 317.96,194 301.21,203.68C297.14,206.04 295.279,210.15 291.089,212.61C287.83,210.98 285.71,209.42 282.16,209.04C272.33,207.99 266.49,215.44 261.92,220.95C255.31,217.34 247.58,221.15 242.87,224.52C231.509,208.62 199.129,220.35 205.97,243.57C201.65,245.29 199.549,254.35 194.06,256.66C191.72,257.65 188.39,256.73 186.319,257.26C170.529,261.31 165.41,280.94 175.609,295.95C173.819,299.47 171.779,302.13 171.44,305.48C170.609,313.6 178.029,319.07 179.77,325.12C182.339,334 181.19,339.53 188.7,345.36C192.56,348.35 196.279,348.54 200.609,351.31C207.54,355.74 209.68,362.6 214.9,367.38C222.339,374.22 236.529,372.43 241.68,366.19C245.15,369.35 252.74,370.64 257.759,370.36C265.54,401.87 276.279,433.59 278,469.18C256.6,482.791 215.96,475.63 191.68,469.77C193.259,473.75 198.2,474.24 201.799,475.73C212.93,480.32 224.97,486.97 231.56,495.97C239.779,507.16 233.779,519.41 226.21,527.51C217.509,536.831 202.92,545.99 191.08,551.92C186.66,554.14 180.66,554.89 178.58,559.66C204.77,551.32 224.95,536.98 260.14,537.63C274.72,544.51 262.43,564.371 255.97,574.541C250.17,583.67 243.65,591.27 239.9,598.35C244.21,597.46 247.23,593.041 250.02,590.02C259.52,579.73 269.79,568.871 283.95,563.831C316.66,552.17 338.269,577.5 355.98,591.81C355.83,587.34 351.41,583.49 348.83,578.71C346.299,574.01 343.23,568.31 342.29,563.23C339.66,549.06 348.429,543.25 360.139,541.8C377.509,539.66 400.73,544.63 413.719,546.56C412,542.621 406.75,542.14 403,540.61C395.57,537.581 373.009,528.9 373.839,519.18C374.589,510.39 394.24,507.94 404.2,505.49C418.33,502.01 436.69,498.9 453.599,497.75C460.29,497.3 467.889,498.82 472.65,494.77M557.78,387.62C561.75,470.98 527.62,533 488.73,575.14C447.58,619.72 391.089,651.92 313.12,656.1C231.74,660.45 169.819,627.57 126.2,587.64C81.009,546.27 49.27,491.4 44.65,412.63C39.799,330.16 73.299,267.32 112.509,225.11C142.67,192.65 181.74,166.65 232.75,152.49C250.52,147.56 269.74,144.57 288.71,143.56C371.719,139.12 433.12,173.36 476.219,212.61C518.74,251.33 554.12,310.81 557.78,387.62" style="fill-rule:nonzero;"/>
        <g transform="matrix(1,0,0,1,0.18159,0.171039)">
            <path d="M388.72,495.371C401.691,496.291 415.29,496.57 427.41,498.349C411.91,502.2 376.67,504.301 372.05,516.199C366.531,530.43 389.81,533.54 395.861,541.211C377.42,538.461 347.071,536.011 339.91,550.141C337.42,562.081 342.34,570.871 345.861,578.711C336.2,572.49 324.76,561.091 308.95,559.06C285.44,556.05 270.71,567.56 258.35,576.331C260.83,568.93 270.991,557.27 270.26,546.56C269.491,535.471 257.68,534.251 242.87,535.251C246.69,532.961 255.48,531.54 262.52,531.68C269.54,531.831 275.2,533.68 278,537.631C279.79,548.831 273.84,556.16 270.26,563.831C279.97,560.68 288.73,548.391 305.38,549.54C317.38,550.371 323.41,558.35 331.571,564.42C332.06,557.631 328.7,550.1 333.361,544.18C340.17,535.52 359,533.891 373.241,535.251C376.12,535.53 378.991,537.699 381.571,535.85C376.93,527.79 353.55,526.631 353.6,514.42C353.651,502.001 378.901,504.599 386.34,496.56C378.481,494.57 351.25,500.871 350.02,491.2C349.42,486.39 357.87,481.08 360.741,478.109C365.43,473.229 368.441,469.83 372.651,466.2C359.991,467.659 349.401,477.06 332.76,477.51C331.781,474.931 333.38,470.341 333.95,467.39C353.95,467.739 368.89,463.041 385.151,459.65C380.231,464.909 370.79,468.791 366.1,474.53C354.92,488.221 375.59,492.14 388.72,495.371" style="fill-rule:nonzero;"/>
        </g>
        <g transform="matrix(1,0,0,1,0.18159,0.171039)">
            <path d="M276.81,472.75C279.73,473.529 278.72,480.96 278,483.46C262.23,487.26 239.92,484.979 225.02,482.27C223.23,481.67 223.96,483.6 223.83,484.649C219.43,481.71 213.12,480.68 210.73,475.729C230.11,481.3 260.95,481.779 276.81,472.75" style="fill-rule:nonzero;"/>
        </g>
        <g transform="matrix(1,0,0,1,0.18159,0.171039)">
            <path d="M227.4,485.85C236.09,492.84 259.8,498.31 258.35,513.23C257.08,526.28 238.67,530.15 227.99,535.85C225.77,536.61 226.24,540.05 223.83,540.61C218.09,541.08 213.44,545.621 208.35,544.78C218.29,536.05 239.03,526.17 238.71,507.871C238.54,498.16 232.46,492.16 225.61,487.04C225.87,486.3 226.37,485.81 227.4,485.85" style="fill-rule:nonzero;"/>
        </g>
    </g>
</svg>
