<?xml version="1.0" encoding="UTF-8" standalone="no"?>
<!DOCTYPE svg PUBLIC "-//W3C//DTD SVG 1.1//EN" "http://www.w3.org/Graphics/SVG/1.1/DTD/svg11.dtd">
<svg width="100%" height="100%" viewBox="0 0 514 514" version="1.1" xmlns="http://www.w3.org/2000/svg" xmlns:xlink="http://www.w3.org/1999/xlink" xml:space="preserve" style="fill-rule:evenodd;clip-rule:evenodd;stroke-linejoin:round;stroke-miterlimit:1.41421;">
    <g transform="matrix(10.3921,0,0,10.4957,-2869.67,-4629.96)">
        <path d="M320.86,455.2C329.07,472.28 312.849,493.24 292.88,486.15C285.54,483.551 276.45,474.621 279.19,459.961C280.67,452.02 286.759,445.511 297.64,443.89C307.799,442.371 317.62,448.471 320.86,455.2" style="fill:white;fill-rule:nonzero;"/>
    </g>
    <g transform="matrix(1.01063,0,0,1.01182,-46.1936,-132.696)">
        <path d="M204.03,391.28L204.03,325.9C199.75,324.87 191.83,325.02 187.54,325.9C186.5,344.06 186.59,371.19 187.54,391.28C191.96,391.38 199.73,391.52 204.03,391.28M274.71,291.15C300.56,271.34 291.52,226.17 261.75,216.94C237.81,209.52 218.87,222.97 209.92,236.96C189.14,278.86 239.16,318.39 274.71,291.15M354.22,555.61C359.64,555.37 367.13,555.949 370.71,555.61C354.91,517.81 337.35,481.77 321.83,443.699C324.7,442.37 333,443.77 336.55,443.11C337.67,437.31 337.1,426.83 337.14,421.909C312.191,421.31 281.6,420.15 257.63,422.5C257.94,429.05 256.94,436.92 258.21,442.52C261.98,444.64 271.58,440.94 273.53,444.88C257.88,482.04 240.82,517.8 225.23,555.02C228.02,557.36 235.63,554.25 239.96,556.199C252.38,536.13 263.61,513.43 274.12,492.59C277.78,485.33 280.96,477.699 285.9,471.38C287.53,496.98 288.26,528.21 290.02,555.61C293.63,555.81 301.6,555.73 305.33,555.61C308.651,529.87 307.25,499.42 308.87,471.97C312.42,473.51 314.22,477.489 315.941,480.81C328.96,506.07 341.12,531.52 354.22,555.61M378.96,408.36C379.941,376.35 379.941,340.25 378.96,308.23C326.731,306.86 271.96,308.03 218.75,307.64C218.06,307.93 217.42,308.27 216.98,308.82C216.46,341.76 216.46,373.94 216.98,407.77C268.72,410.12 326.92,408.95 378.96,408.36M384.26,272.89C396.191,240.76 369.84,211.75 338.91,215.76C319.27,218.3 304.74,232.44 302.39,251.1C297.1,293.21 343.05,311.02 369.54,292.33C375.6,288.05 381.55,280.2 384.26,272.89M450.821,407.77C450.84,377.12 450.8,341.43 450.821,308.82L449.64,308.82C430.45,319.66 410,329.25 391.92,341.22C390.54,351.43 391.72,364.18 391.33,375.38C400.14,382.46 410.83,386.47 420.78,391.87C430.58,397.19 439.691,404.38 450.821,407.77M553.89,373.02C557.821,455.5 524.05,516.86 485.571,558.56C444.861,602.67 388.97,634.53 311.81,638.659C231.3,642.97 170.03,610.44 126.87,570.93C82.15,529.989 50.75,475.699 46.17,397.76C41.38,316.16 74.52,253.98 113.32,212.22C143.17,180.1 181.82,154.37 232.3,140.37C249.87,135.49 268.89,132.54 287.67,131.53C369.79,127.14 430.55,161.02 473.2,199.85C515.27,238.16 550.27,297.02 553.89,373.02" style="fill-rule:nonzero;"/>
    </g>
</svg>
